<svg width="14" height="12" viewBox="0 0 14 12" fill="none" xmlns="http://www.w3.org/2000/svg">
<path d="M11.8125 3.375L11.4479 9.577C11.4283 9.91128 11.2816 10.2254 11.0379 10.4551C10.7943 10.6848 10.472 10.8126 10.1372 10.8125H3.86283C3.52798 10.8126 3.20574 10.6848 2.96207 10.4551C2.7184 10.2254 2.57173 9.91128 2.55208 9.577L2.1875 3.375M5.83333 5.5625H8.16667M1.96875 3.375H12.0312C12.3935 3.375 12.6875 3.081 12.6875 2.71875V1.84375C12.6875 1.4815 12.3935 1.1875 12.0312 1.1875H1.96875C1.6065 1.1875 1.3125 1.4815 1.3125 1.84375V2.71875C1.3125 3.081 1.6065 3.375 1.96875 3.375Z" stroke="#212121" stroke-linecap="round" stroke-linejoin="round"/>
</svg>
