<svg width="182" height="62" viewBox="0 0 182 62" fill="none" xmlns="http://www.w3.org/2000/svg">
<path d="M63.2723 12.6651H73.4081V36.5828C73.4081 39.4266 72.7275 41.8877 71.3664 43.9659C70.0174 46.0319 68.1336 47.6301 65.7151 48.7604C63.2966 49.8785 60.4892 50.4375 57.2929 50.4375C54.0722 50.4375 51.2527 49.8785 48.8342 48.7604C46.4157 47.6301 44.5319 46.0319 43.1829 43.9659C41.846 41.8877 41.1776 39.4266 41.1776 36.5828V12.6651H51.3134V35.7077C51.3134 36.8623 51.5687 37.8953 52.0791 38.8068C52.5895 39.7062 53.2944 40.4111 54.1938 40.9215C55.1053 41.4319 56.1383 41.6871 57.2929 41.6871C58.4596 41.6871 59.4926 41.4319 60.3919 40.9215C61.2913 40.4111 61.9962 39.7062 62.5066 38.8068C63.0171 37.8953 63.2723 36.8623 63.2723 35.7077V12.6651ZM78.2254 50V12.6651H88.3612V41.833H103.456V50H78.2254ZM107.553 50V12.6651H117.689V27.7595H118.199L129.429 12.6651H141.242L128.627 29.2908L141.533 50H129.429L121.043 35.9994L117.689 40.3746V50H107.553ZM142.718 12.6651H154.021L161.313 27.8324H161.605L168.897 12.6651H180.199L166.49 38.2599V50H156.427V38.2599L142.718 12.6651Z" fill="url(#paint0_linear_5_2462)"/>
<path d="M37.3738 39.8665C37.3738 41.3074 37.1192 42.7153 36.6099 44.0902C36.1007 45.4682 35.2769 46.6904 34.1386 47.7598C33.0002 48.8293 31.5114 49.692 29.6662 50.351C27.8269 51.0071 25.5981 51.3366 22.98 51.3366H0.228516V39.7466C0.228516 37.5689 0.671862 35.7026 1.56155 34.1449L2.13371 34.8788L2.94551 35.9213L4.59608 38.0392L4.63502 38.0871L9.08647 32.036L10.9797 29.4658L11.5998 28.621C12.5314 28.5162 13.5139 28.4623 14.5474 28.4623H16.89V25.4937L24.5317 31.9761L16.89 38.4585V35.2443H13.1665C11.7615 35.2443 10.5843 35.7056 9.64065 36.6312C8.69404 37.5569 8.22374 38.6353 8.22374 39.8665V44.5546H24.1423C25.694 44.5546 26.9551 44.1112 27.9227 43.2305C28.8933 42.3438 29.3786 41.1845 29.3786 39.7466C29.3786 39.1865 29.2558 38.7701 29.2318 38.6742C28.9442 37.6138 28.2972 36.9008 27.8778 36.5204C28.9772 36.3766 30.5798 36.0261 32.3083 35.1125C33.4166 34.5253 34.2794 33.8633 34.9174 33.2912C35.5165 34.1179 35.9179 34.8579 36.1756 35.3971C36.6219 36.3227 37.3738 37.8564 37.3738 39.8665Z" fill="url(#paint1_linear_5_2462)"/>
<path d="M37.3738 39.8665C37.3738 41.3074 37.1192 42.7153 36.6099 44.0902C36.1007 45.4682 35.2769 46.6904 34.1386 47.7598C33.0002 48.8293 31.5114 49.692 29.6662 50.351C27.8269 51.0071 25.5981 51.3366 22.98 51.3366H0.228516V39.7466C0.228516 37.5689 0.671862 35.7026 1.56155 34.1449L2.13371 34.8788L2.94551 35.9213L4.59608 38.0392L4.63502 38.0871L9.08647 32.036L10.9797 29.4658L11.5998 28.621C12.5314 28.5162 13.5139 28.4623 14.5474 28.4623H16.89V25.4937L24.5317 31.9761L16.89 38.4585V35.2443H13.1665C11.7615 35.2443 10.5843 35.7056 9.64065 36.6312C8.69404 37.5569 8.22374 38.6353 8.22374 39.8665V44.5546H24.1423C25.694 44.5546 26.9551 44.1112 27.9227 43.2305C28.8933 42.3438 29.3786 41.1845 29.3786 39.7466C29.3786 39.1865 29.2558 38.7701 29.2318 38.6742C28.9442 37.6138 28.2972 36.9008 27.8778 36.5204C28.9772 36.3766 30.5798 36.0261 32.3083 35.1125C33.4166 34.5253 34.2794 33.8633 34.9174 33.2912C35.5165 34.1179 35.9179 34.8579 36.1756 35.3971C36.6219 36.3227 37.3738 37.8564 37.3738 39.8665Z" fill="#212121"/>
<path d="M37.3739 24.0229C37.3739 25.3799 37.1193 26.7249 36.61 28.061C36.1008 29.397 35.265 30.5982 34.1027 31.6677C32.9405 32.7371 31.4487 33.5998 29.6333 34.2588C28.2524 34.7561 26.6407 35.0677 24.7984 35.1845L25.2867 34.7681L25.9877 34.169L26.8504 33.4321L28.6028 31.9313L28.6448 31.8953L24.3491 28.4594C25.76 28.4204 26.9373 27.9771 27.8869 27.1383C28.8814 26.2517 29.3787 25.1732 29.3787 23.9001C29.3787 22.7079 28.8695 21.6594 27.851 20.7547C26.8325 19.8501 25.6222 19.3977 24.2173 19.3977H8.22386V25.332L11.1236 25.299L11.0846 25.344L9.32924 27.5517L7.84642 29.412L7.30122 30.098L4.3925 33.7526L4.35955 33.7945L4.33259 33.7586L3.0355 32.2248L2.40044 31.47L1.8852 30.8589L1.22018 30.068L0.228638 28.8938V12.6157H22.9801C25.4994 12.6157 27.6682 12.9153 29.4865 13.5114C31.3049 14.1075 32.7937 14.9283 33.956 15.9768C35.1212 17.0252 35.981 18.2355 36.5382 19.6134C37.0953 20.9914 37.3739 22.4592 37.3739 24.0229Z" fill="#212121"/>
<path d="M37.3739 24.0229C37.3739 25.3799 37.1193 26.7249 36.61 28.061C36.1008 29.397 35.265 30.5982 34.1027 31.6677C32.9405 32.7371 31.4487 33.5998 29.6333 34.2588C28.2524 34.7561 26.6407 35.0677 24.7984 35.1845L25.2867 34.7681L25.9877 34.169L26.8504 33.4321L28.6028 31.9313L28.6448 31.8953L24.3491 28.4594C25.76 28.4204 26.9373 27.9771 27.8869 27.1383C28.8814 26.2517 29.3787 25.1732 29.3787 23.9001C29.3787 22.7079 28.8695 21.6594 27.851 20.7547C26.8325 19.8501 25.6222 19.3977 24.2173 19.3977H8.22386V25.332L11.1236 25.299L11.0846 25.344L9.32924 27.5517L7.84642 29.412L7.30122 30.098L4.3925 33.7526L4.35955 33.7945L4.33259 33.7586L3.0355 32.2248L2.40044 31.47L1.8852 30.8589L1.22018 30.068L0.228638 28.8938V12.6157H22.9801C25.4994 12.6157 27.6682 12.9153 29.4865 13.5114C31.3049 14.1075 32.7937 14.9283 33.956 15.9768C35.1212 17.0252 35.981 18.2355 36.5382 19.6134C37.0953 20.9914 37.3739 22.4592 37.3739 24.0229Z" fill="url(#paint2_linear_5_2462)"/>
<path d="M38.4251 32.3837L38.4191 32.3447C38.4191 32.3447 38.4251 32.3567 38.4251 32.3837Z" fill="white"/>
<defs>
<linearGradient id="paint0_linear_5_2462" x1="92.5002" y1="-1.59098e-07" x2="102.833" y2="102.059" gradientUnits="userSpaceOnUse">
<stop offset="0.221999" stop-color="#FFCF02"/>
<stop offset="0.657708" stop-color="#FF9900"/>
</linearGradient>
<linearGradient id="paint1_linear_5_2462" x1="18.8012" y1="25.4937" x2="14" y2="68.5" gradientUnits="userSpaceOnUse">
<stop offset="0.145311" stop-color="#FFCF02"/>
<stop offset="1" stop-color="#FF9900"/>
</linearGradient>
<linearGradient id="paint2_linear_5_2462" x1="18.8013" y1="12.6157" x2="19.9096" y2="42.9668" gradientUnits="userSpaceOnUse">
<stop offset="0.145311" stop-color="#FFCF02"/>
<stop offset="1" stop-color="#FF9900"/>
</linearGradient>
</defs>
</svg>
