<svg width="16" height="16" viewBox="0 0 16 16" fill="none" xmlns="http://www.w3.org/2000/svg">
<path d="M9.02843 2.59302H11.9071C12.3049 2.59302 12.6865 2.75105 12.9678 3.03236C13.2491 3.31366 13.4071 3.69519 13.4071 4.09302V6.97168C13.4071 7.36968 13.2491 7.75168 12.9678 8.03235L8.02577 12.9743C7.55977 13.4403 6.83911 13.5557 6.28777 13.1943C4.90004 12.2854 3.71468 11.1001 2.80577 9.71234C2.44444 9.16101 2.55977 8.44034 3.02577 7.97434L7.9671 3.03302C8.10641 2.89353 8.27185 2.78287 8.45397 2.70737C8.63608 2.63188 8.83129 2.59302 9.02843 2.59302Z" stroke="#212121" stroke-linecap="round" stroke-linejoin="round"/>
<path d="M11.1684 4.83153H11.1631V4.83687H11.1684V4.83153Z" stroke="#212121" stroke-width="1.5" stroke-linecap="round" stroke-linejoin="round"/>
</svg>
